<?xml version="1.0" encoding="UTF-8"?>
<svg id="Layer_2" data-name="Layer 2" xmlns="http://www.w3.org/2000/svg" viewBox="0 0 524.69 148.63">
  <defs>
    <style>
      .cls-1, .cls-2 {
        fill: #f48120;
      }

      .cls-3, .cls-4 {
        fill: #fff;
      }

      .cls-5, .cls-6 {
        fill: #231f20;
      }

      .cls-6, .cls-4, .cls-2 {
        fill-rule: evenodd;
      }
    </style>
  </defs>
  <g id="Layer_2-2" data-name="Layer 2">
    <g>
      <g>
        <g>
          <g>
            <rect class="cls-1" x="170.82" y="21.37" width="106.43" height="106.39"/>
            <path class="cls-5" d="m279.02,129.53h-109.98V19.6h109.98v109.93Zm-106.43-3.54h102.88V23.14h-102.88v102.85Z"/>
          </g>
          <polygon class="cls-6" points="197.3 109.28 240.45 109.28 240.45 101.35 207.4 101.35 207.4 36.02 197.3 36.02 197.3 109.28 197.3 109.28"/>
        </g>
        <g>
          <g>
            <rect class="cls-1" x="293.66" y="21.12" width="106.43" height="106.39"/>
            <path class="cls-5" d="m401.86,129.28h-109.98V19.35h109.98v109.93Zm-106.43-3.54h102.88V22.89h-102.88v102.85Z"/>
          </g>
          <path class="cls-6" d="m366.04,47.96c-1.21-2.59-2.85-4.77-4.94-6.52-2.3-1.98-5.24-3.48-8.86-4.51-3.61-1.05-7.9-1.58-12.83-1.58-4.01.02-7.61.15-10.79.42-3.17.27-5.96.6-8.37.99v72.39h9.98v-29.34c1.15.27,2.41.43,3.75.52,1.35.09,2.79.13,4.28.13,3.27,0,6.35-.31,9.27-.91,2.91-.6,5.59-1.49,8.01-2.68,2.43-1.2,4.55-2.68,6.35-4.46,1.95-1.9,3.45-4.16,4.46-6.77,1-2.61,1.51-5.57,1.51-8.88-.02-3.28-.63-6.21-1.83-8.81Zm-10.5,17.78c-1.55,2.31-3.77,4.07-6.66,5.29-2.89,1.21-6.35,1.83-10.38,1.83-1.66,0-3.19-.06-4.57-.18-1.37-.11-2.6-.31-3.69-.58v-28.48c.89-.21,2.1-.4,3.71-.55,1.6-.14,3.5-.21,5.7-.21,3.65,0,6.84.53,9.58,1.58,2.72,1.05,4.84,2.64,6.35,4.78,1.53,2.14,2.29,4.84,2.32,8.1-.02,3.3-.8,6.1-2.35,8.43Z"/>
        </g>
        <g>
          <g>
            <rect class="cls-1" x="416.49" y="20.87" width="106.43" height="106.39"/>
            <path class="cls-5" d="m524.69,129.03h-109.98V19.1h109.98v109.93Zm-106.43-3.54h102.88V22.64h-102.88v102.85Z"/>
          </g>
          <path class="cls-6" d="m442.97,35.78v43.15c.02,5.69.73,10.53,2.11,14.53,1.39,3.98,3.35,7.21,5.85,9.67,2.49,2.48,5.43,4.27,8.79,5.41,3.37,1.14,7.04,1.7,11.02,1.68,4.21.02,8.09-.57,11.65-1.77,3.54-1.19,6.64-3.06,9.28-5.6,2.62-2.54,4.66-5.81,6.12-9.82,1.45-4,2.19-8.82,2.22-14.44v-42.82h-10.1v43.48c-.02,5.34-.8,9.75-2.35,13.19-1.55,3.42-3.73,5.98-6.54,7.61-2.82,1.65-6.12,2.48-9.93,2.46-3.48.02-6.56-.78-9.25-2.4-2.7-1.61-4.84-4.15-6.39-7.58-1.55-3.42-2.33-7.86-2.37-13.28v-43.48h-10.1Z"/>
        </g>
      </g>
      <g>
        <g>
          <ellipse class="cls-3" cx="74.42" cy="74.32" rx="73.72" ry="73.62"/>
          <path class="cls-5" d="m74.42,148.63C33.38,148.63,0,115.29,0,74.32S33.38,0,74.42,0s74.42,33.34,74.42,74.32-33.38,74.32-74.42,74.32Zm0-147.25C34.15,1.38,1.39,34.1,1.39,74.32s32.76,72.93,73.03,72.93,73.03-32.72,73.03-72.93S114.69,1.38,74.42,1.38Z"/>
        </g>
        <path class="cls-4" d="m74.42,17.33c31.51,0,57.06,25.51,57.06,56.98s-25.55,56.98-57.06,56.98-57.05-25.51-57.05-56.98,25.55-56.98,57.05-56.98Z"/>
        <path class="cls-6" d="m74.42,18.89c30.64,0,55.5,24.82,55.5,55.42s-24.85,55.42-55.5,55.42-55.49-24.82-55.49-55.42,24.85-55.42,55.49-55.42Z"/>
        <path class="cls-2" d="m35.41,34.9l-8.67,67.76c-4.96-8.3-7.81-17.99-7.81-28.36,0-15.42,6.31-29.36,16.48-39.41Z"/>
        <path class="cls-2" d="m29.33,106.62L51.81,23.69c6.91-3.08,14.56-4.8,22.61-4.8h0c4.35,0,8.58.5,12.63,1.44l-53.02,91.97c-1.69-1.79-3.26-3.69-4.69-5.69Z"/>
        <path class="cls-2" d="m35.98,114.27L104.08,27.47c9.6,6.07,17.19,15.01,21.6,25.6L40.49,118.16c-1.57-1.22-3.08-2.51-4.51-3.89Z"/>
        <path class="cls-2" d="m42.84,119.88l86.95-49.24c.08,1.21.12,2.43.12,3.66,0,11.88-3.75,22.89-10.12,31.91l-69.1,18.19c-2.75-1.3-5.37-2.82-7.85-4.53Z"/>
        <path class="cls-2" d="m57.76,127.19l45.47-5.5c-8.4,5.11-18.26,8.05-28.81,8.05-5.81,0-11.4-.89-16.66-2.55Z"/>
        <path class="cls-5" d="m74.42,130.43c-30.98,0-56.19-25.17-56.19-56.11s25.21-56.11,56.19-56.11,56.19,25.17,56.19,56.11-25.21,56.11-56.19,56.11Zm0-110.84c-30.22,0-54.8,24.55-54.8,54.73s24.58,54.73,54.8,54.73,54.8-24.55,54.8-54.73-24.58-54.73-54.8-54.73Z"/>
        <path class="cls-6" d="m6.12,87.47l-.13-.87,7.76-1.15-.49-3.29.83-.12.62,4.16-8.58,1.27h0Zm-1.36-10.82c-.01-1.31.42-2.41,1.29-3.3.87-.89,1.95-1.34,3.23-1.35,1.27,0,2.35.42,3.24,1.3.89.87,1.34,1.95,1.35,3.21,0,1.28-.42,2.37-1.3,3.26-.87.89-1.94,1.34-3.19,1.35-.83,0-1.61-.19-2.32-.59-.72-.4-1.28-.94-1.68-1.63-.41-.69-.62-1.44-.62-2.25h0Zm.85-.05c0,.64.17,1.24.51,1.82.34.57.79,1.01,1.36,1.34.57.32,1.2.47,1.89.47,1.03,0,1.9-.37,2.61-1.09.7-.72,1.05-1.58,1.04-2.59,0-.67-.17-1.29-.5-1.86-.33-.57-.78-1.01-1.35-1.33-.57-.31-1.2-.47-1.89-.47-.69,0-1.31.17-1.86.5-.55.32-.99.78-1.32,1.36-.33.58-.49,1.2-.49,1.85h0Zm-.58-6.98l.14-.93,7.06-1.84-6.2-3.89.14-.93,8.02,5.02-.03.19-9.14,2.38h0Zm1.64-10l1.25-4.8.83.22-1.03,3.96,2.63.68,1.03-3.93.82.21-1.02,3.94,3.29.85,1.02-3.93.83.22-1.24,4.77-8.4-2.18h0Zm2.03-7.07l8.12,3.05,1.48-3.93-.78-.29-1.17,3.11-7.34-2.75-.31.82h0Zm2.05-5.28l.43-.9,4.18-.46-2.28-3.51.43-.9,2.9,4.43,3.74,1.79-.37.77-3.74-1.79-5.3.57Z"/>
        <path class="cls-6" d="m27,24.4l1.33-1.11c.76-.64,1.3-1.03,1.62-1.19.46-.22.93-.29,1.42-.2.48.09.91.35,1.28.79.37.44.56.91.57,1.39,0,.48-.15.95-.48,1.4-.24.32-.77.83-1.6,1.52l-.47.4,2.59,3.09-.67.56-5.58-6.64h0Zm1.21.09l1.9,2.26,1.14-.93c.45-.38.75-.7.89-.96.14-.26.2-.53.16-.82-.03-.29-.15-.55-.34-.77-.19-.22-.42-.38-.7-.46-.28-.08-.55-.08-.81,0-.26.09-.62.32-1.07.69l-1.18.98h0Zm4.95-5.21l4.98,7.1.71-.5-2.32-3.3.41-.28,4.86,1.52.88-.62-4.87-1.51c.59-.42,1.01-.82,1.24-1.21.23-.39.34-.79.32-1.21-.02-.42-.17-.82-.44-1.21-.33-.46-.73-.76-1.22-.9-.49-.13-.97-.1-1.46.1-.33.13-.88.47-1.67,1.02l-1.41.99h0Zm1.2.2l1.25-.87c.49-.34.87-.54,1.13-.61.27-.06.54-.04.8.06.26.1.48.28.65.51.17.24.26.51.27.8.01.29-.06.55-.23.81-.16.25-.48.54-.96.87l-1.23.85-1.69-2.41h0Zm9.35-6.96c1.17-.59,2.35-.7,3.54-.33,1.19.38,2.07,1.14,2.65,2.28.58,1.13.67,2.29.29,3.48-.38,1.19-1.14,2.07-2.27,2.64-1.14.58-2.31.68-3.5.3-1.19-.38-2.07-1.13-2.63-2.24-.38-.74-.55-1.52-.51-2.34.03-.82.27-1.56.71-2.24.44-.67,1.02-1.2,1.74-1.56h0Zm.42.74c.58-.3,1.21-.43,1.88-.39.67.03,1.27.22,1.81.57.54.35.97.83,1.28,1.44.31.62.45,1.25.43,1.9-.03.65-.22,1.25-.58,1.8-.36.55-.84.98-1.44,1.28-.9.45-1.83.53-2.78.23-.96-.31-1.67-.92-2.14-1.84-.32-.62-.46-1.25-.43-1.9.03-.65.23-1.26.59-1.81.36-.56.82-.98,1.4-1.27h0Zm6.85-3.62l4.14-1.34.26.81-3.32,1.07.84,2.58,3.32-1.08.26.81-3.32,1.08,1.32,4.04-.82.26-2.68-8.24h0Zm6.41-1.94l4.87-1.03.18.83-4.02.85.56,2.65,3.98-.84.18.83-3.98.84.71,3.32,3.98-.84.18.84-4.83,1.03-1.8-8.48h0Zm7.08,5.63l.68-.53c.63.88,1.28,1.28,1.96,1.2.29-.04.55-.14.79-.3.24-.17.41-.37.51-.61.11-.24.14-.49.11-.74-.04-.29-.17-.56-.4-.81-.32-.35-.86-.75-1.64-1.2-.78-.46-1.28-.79-1.49-1.01-.35-.37-.56-.79-.62-1.26-.05-.38,0-.73.14-1.06.14-.33.36-.6.67-.82.3-.22.65-.35,1.03-.39.41-.05.8,0,1.17.16.38.16.8.48,1.26.97l-.64.62c-.38-.39-.69-.64-.94-.75-.24-.11-.5-.15-.77-.12-.35.04-.62.18-.81.42-.19.24-.27.51-.24.82.02.19.09.36.18.53.1.17.27.34.5.52.13.1.54.34,1.22.72.81.46,1.39.88,1.72,1.28.33.4.52.81.57,1.24.08.62-.09,1.19-.51,1.71-.42.52-.97.82-1.65.9-.52.06-1.01-.02-1.47-.24-.46-.23-.91-.65-1.35-1.26h0Zm6.19-.72l.73-.45c.54.94,1.14,1.41,1.83,1.4.29,0,.56-.08.82-.22.25-.14.45-.32.57-.55.13-.23.19-.47.19-.73,0-.29-.11-.57-.31-.85-.28-.38-.78-.83-1.51-1.36-.73-.53-1.19-.92-1.37-1.16-.31-.4-.48-.84-.48-1.31,0-.38.08-.72.25-1.04.18-.31.43-.56.75-.75.33-.18.68-.28,1.07-.28.41,0,.79.09,1.15.28.36.19.74.56,1.15,1.1l-.7.55c-.34-.43-.62-.71-.85-.84-.23-.13-.48-.2-.75-.19-.35,0-.64.12-.85.33-.22.21-.32.48-.32.79,0,.19.05.37.13.55.08.17.23.36.44.57.12.11.49.39,1.14.85.76.54,1.28,1.02,1.57,1.45.28.43.44.86.44,1.29.01.63-.22,1.18-.69,1.65-.47.47-1.05.71-1.73.72-.53,0-1.01-.12-1.44-.39-.43-.27-.84-.74-1.21-1.39h0Zm7.42-6.96l.87.06-.6,8.65-.87-.06.6-8.65h0Zm7.85.61c1.29.23,2.3.85,3.02,1.87.72,1.01.97,2.15.74,3.41-.22,1.25-.84,2.23-1.86,2.95-1.02.72-2.16.97-3.41.75-1.27-.23-2.26-.84-2.98-1.86-.72-1.02-.97-2.15-.75-3.38.14-.82.48-1.54,1-2.17.52-.63,1.16-1.08,1.91-1.36.76-.28,1.53-.34,2.33-.2h0Zm-.11.84c-.63-.11-1.26-.05-1.88.18-.62.23-1.14.59-1.56,1.1-.41.5-.68,1.09-.8,1.78-.18,1.01.02,1.93.6,2.75.58.82,1.37,1.32,2.36,1.49.66.12,1.3.06,1.92-.16.62-.22,1.14-.58,1.55-1.09.41-.5.68-1.09.8-1.77.12-.68.07-1.32-.15-1.92-.22-.6-.58-1.12-1.1-1.55-.52-.43-1.09-.7-1.74-.82h0Zm4.84,9.14l2.68-8.24.18.06,3.43,8.09,2.05-6.31.81.26-2.68,8.24-.19-.06-3.41-8-2.03,6.23-.85-.28h0Zm15.48-3.19l-.19-.1-7.59,5.86.86.44,2.5-1.93,3.33,1.69-.08,3.16.83.42.33-9.56h0Zm-.93,1.59l-.11,3.47-2.64-1.35,2.76-2.12h0Zm6.23,1.48l.74.46-4.15,6.64,2.82,1.76-.44.71-3.57-2.22,4.6-7.35Z"/>
        <path class="cls-6" d="m127.9,30.36l.55.68-4.07,3.29c-.48.39-.78.64-.88.76-.24.25-.4.51-.48.77-.08.27-.08.57,0,.93.09.35.23.65.44.91.18.23.4.4.66.53.26.13.53.19.81.2.28,0,.57-.06.85-.19.21-.09.58-.35,1.11-.78l4.07-3.29.55.67-4.07,3.29c-.6.49-1.14.82-1.6,1-.47.19-.98.21-1.54.08-.56-.13-1.04-.45-1.45-.95-.44-.55-.69-1.12-.75-1.71-.05-.6.08-1.13.4-1.61.19-.3.64-.72,1.32-1.27l4.07-3.29h0Zm-2.01,11.8l.45.78,5.68-3.28-2.82,8.22.1.17,7.51-4.33-.43-.74-5.75,3.32,2.87-8.31-.09-.16-7.52,4.33h0Zm12.07,4.11l.36.79-7.86,3.66-.37-.79,7.87-3.66h0Zm1.23,2.78l-6.99,6.34.06.18,9.43.74-.31-.89-7.29-.58,5.41-4.89-.31-.89h0Zm3.19,9.8l.95,4.88-.84.16-.78-4.02-2.66.52.78,3.99-.84.16-.78-3.99-3.34.65.78,3.99-.84.16-.94-4.84,8.52-1.65h0Zm1.18,7.35l.15,1.72c.09.96.1,1.61.05,1.96-.07.52-.29.96-.65,1.32-.36.35-.82.55-1.38.6-.47.04-.89-.03-1.27-.22-.38-.19-.67-.48-.89-.88-.22-.39-.36-.95-.43-1.68l-3.75,3.46-.09-1.07,3.75-3.45-.04-.49-4.02.35-.07-.86,8.64-.76h0Zm-.77.94l-2.94.26.12,1.48c.05.57.14,1,.27,1.26.14.27.33.47.58.6.25.14.53.19.83.16.29-.03.55-.13.77-.3.22-.18.38-.4.46-.66.08-.26.09-.69.04-1.28l-.13-1.52h0Zm-5.79,6.27l.43.74c-.96.5-1.45,1.09-1.46,1.77,0,.29.06.56.19.82.13.26.31.46.54.59.23.14.47.21.72.22.29,0,.58-.09.86-.28.39-.26.86-.75,1.42-1.46.56-.71.96-1.15,1.21-1.33.41-.3.86-.45,1.34-.44.38,0,.72.1,1.03.29.31.19.55.45.72.78.17.33.25.69.25,1.07,0,.41-.11.79-.32,1.14-.21.35-.59.72-1.14,1.11l-.53-.72c.44-.32.73-.59.87-.82.14-.23.22-.48.22-.75,0-.35-.1-.64-.31-.86-.21-.22-.47-.34-.78-.34-.19,0-.37.03-.55.11-.18.08-.37.22-.58.42-.11.11-.41.48-.89,1.11-.57.74-1.07,1.25-1.51,1.52-.44.27-.87.41-1.31.4-.63-.01-1.17-.26-1.63-.75-.45-.49-.67-1.07-.66-1.75,0-.53.16-1,.45-1.42.29-.42.77-.81,1.43-1.16h0Zm6.83,7.26l-.06.86-8.66-.6.06-.86,8.66.6h0Zm-1.08,2.79l.83.15-.83,4.68-.83-.15.34-1.9-7.72-1.36.15-.87,7.72,1.36.34-1.91h0Zm-.17,6.12l-.26.97-4.03,1.21,2.89,3.03-.26.97-3.66-3.82-4.01-1.07.22-.83,4.01,1.07,5.1-1.53Z"/>
        <path class="cls-6" d="m33.15,118.14l1.31,1.12c.75.64,1.23,1.11,1.44,1.4.3.41.44.87.44,1.36,0,.49-.2.96-.57,1.39-.38.44-.8.7-1.28.79-.48.09-.96,0-1.46-.25-.36-.18-.95-.62-1.77-1.32l-.47-.4-2.62,3.06-.66-.56,5.64-6.59h0Zm.11,1.2l-1.92,2.24,1.11.97c.45.39.82.63,1.1.72.28.1.56.1.83.02.28-.08.52-.24.71-.46.19-.22.3-.47.34-.76.04-.29,0-.55-.14-.8-.13-.25-.41-.56-.86-.94l-1.17-1h0Zm5.06,3.17l-2.9,4.36c-.49.73-.78,1.27-.88,1.61-.16.55-.13,1.1.1,1.66.23.55.64,1.02,1.22,1.41.54.36,1.09.51,1.67.47.57-.05,1.06-.23,1.45-.54.39-.31.8-.79,1.23-1.44l2.89-4.36-.72-.48-2.9,4.36c-.38.57-.65.93-.82,1.08-.24.21-.49.36-.76.44-.27.08-.55.1-.83.06-.29-.04-.55-.14-.79-.3-.27-.18-.51-.43-.69-.74-.19-.31-.28-.6-.28-.88,0-.28.07-.57.22-.88.07-.14.27-.47.61-.99l2.9-4.36-.72-.48h0Zm2.54,11.67l4.01-7.69.17.09,2.05,8.55,3.07-5.88.76.39-4.01,7.69-.17-.09-2.04-8.45-3.03,5.81-.8-.42h0Zm13.97-3.34l-1.76,5.55c-.21.68-.4,1.12-.55,1.34-.15.21-.35.36-.58.44-.24.08-.48.08-.71,0-.18-.06-.35-.15-.51-.3-.25-.21-.54-.54-.87-.98l-.65.52c.29.45.58.79.86,1.02.28.23.59.4.93.51.44.14.85.16,1.23.06.37-.1.68-.3.92-.59.24-.29.49-.87.77-1.73l1.77-5.58-.83-.26h0Zm6.34,1.83l1.91,9.37-.91-.22-.66-3.09-3.64-.87-1.99,2.46-.94-.23,6.02-7.47.21.05h0Zm-.53,1.76l-2.19,2.71,2.89.69-.7-3.4h0Zm5.65-.88l1.7.22c.68.09,1.2.24,1.54.45.35.21.6.5.77.86.17.36.23.75.17,1.16-.05.38-.19.72-.42,1.01-.23.29-.54.51-.93.65.43.21.75.44.96.67.22.24.37.51.47.82.1.31.12.63.08.97-.09.69-.42,1.24-.99,1.65-.57.41-1.28.56-2.13.45l-2.36-.31,1.14-8.59h0Zm.73.95l-.37,2.75.49.06c.6.08,1.04.08,1.34,0,.3-.07.54-.22.74-.44.2-.22.31-.47.35-.77.05-.39-.04-.72-.29-.98-.25-.26-.67-.43-1.27-.51l-.99-.13h0Zm-.48,3.62l-.44,3.29,1.06.14c.63.08,1.1.08,1.41,0,.31-.09.57-.25.78-.48.21-.24.34-.51.38-.81.05-.38-.03-.73-.24-1.05-.21-.32-.53-.56-.95-.72-.28-.11-.79-.21-1.51-.31l-.48-.06h0Zm11.52-4.53l.96-.04c-.35.81-.62,1.74-.81,2.8-.19,1.06-.26,2.15-.21,3.27.04,1.04.17,2.03.39,2.99.22.96.49,1.79.83,2.51l-.91.04c-.32-.69-.59-1.5-.8-2.44-.21-.94-.34-1.92-.39-2.95-.05-1.1,0-2.18.17-3.24.16-1.06.41-2.04.76-2.94h0Zm3.02.19l.87-.07.68,8.64-.87.07-.68-8.64h0Zm4.2,8.29l-1.73-8.5.19-.04,6.98,5.36-1.32-6.5.84-.17,1.73,8.5-.19.04-6.91-5.29,1.31,6.42-.88.18h0Zm9.42-2.14l2.61-.92c1.02-.36,1.76-.79,2.22-1.28.46-.5.76-1.12.89-1.87.13-.75.06-1.53-.24-2.35-.34-.95-.85-1.68-1.54-2.21-.69-.53-1.48-.79-2.37-.79-.62,0-1.54.21-2.77.64l-1.7.6,2.89,8.17h0Zm.51-1.05l-2.34-6.61.58-.2c1.18-.41,2.05-.63,2.61-.66.76-.03,1.43.16,2.01.59.58.43,1.01,1.03,1.29,1.82.27.75.32,1.45.15,2.1-.17.64-.52,1.18-1.07,1.59-.39.3-1.15.64-2.28,1.04l-.95.33h0Zm4.72-10.22l.79-.36,3.59,7.89-.79.36-3.6-7.89h0Zm5.53-2.71l7.89,5.42-.8.47-2.62-1.77-3.22,1.89.28,3.15-.83.49-.87-9.55.18-.11h0Zm.84,1.64l.31,3.46,2.56-1.5-2.87-1.96h0Zm10.71,4.23c-.22-.95-.56-1.9-1.02-2.87-.46-.96-1.01-1.89-1.67-2.77-.61-.82-1.27-1.57-1.97-2.23-.7-.66-1.38-1.18-2.03-1.57l-.73.54c.68.41,1.38.94,2.09,1.61.71.67,1.38,1.42,1.99,2.26.67.9,1.22,1.84,1.66,2.83.44.98.74,1.91.9,2.78l.77-.57Z"/>
        <g>
          <path class="cls-6" d="m19.85,107.87c1.38,0,2.49,1.12,2.49,2.49s-1.12,2.49-2.49,2.49-2.49-1.12-2.49-2.49,1.12-2.49,2.49-2.49Z"/>
          <path class="cls-5" d="m19.85,113.04c-1.48,0-2.68-1.2-2.68-2.68s1.2-2.68,2.68-2.68,2.68,1.2,2.68,2.68-1.2,2.68-2.68,2.68Zm0-4.98c-1.27,0-2.31,1.03-2.31,2.31s1.04,2.31,2.31,2.31,2.31-1.03,2.31-2.31-1.04-2.31-2.31-2.31Z"/>
        </g>
        <g>
          <path class="cls-6" d="m128.34,107.87c1.38,0,2.49,1.12,2.49,2.49s-1.12,2.49-2.49,2.49-2.49-1.12-2.49-2.49,1.12-2.49,2.49-2.49Z"/>
          <path class="cls-5" d="m128.34,113.04c-1.48,0-2.68-1.2-2.68-2.68s1.2-2.68,2.68-2.68,2.68,1.2,2.68,2.68-1.2,2.68-2.68,2.68Zm0-4.98c-1.27,0-2.31,1.03-2.31,2.31s1.04,2.31,2.31,2.31,2.31-1.03,2.31-2.31-1.04-2.31-2.31-2.31Z"/>
        </g>
      </g>
    </g>
  </g>
</svg>