<svg width="48" height="48" viewBox="0 0 48 48" fill="none" xmlns="http://www.w3.org/2000/svg">
<rect width="48" height="48" fill="#EF7D00" fill-opacity="0.08"/>
<path d="M30.9996 27.4817V29.5893C31.0004 29.7849 30.9602 29.9786 30.8817 30.1578C30.8031 30.3371 30.6879 30.498 30.5435 30.6303C30.399 30.7626 30.2285 30.8633 30.0428 30.9259C29.8571 30.9886 29.6603 31.0119 29.465 30.9943C27.299 30.7594 25.2183 30.0207 23.3902 28.8376C21.6895 27.7589 20.2475 26.3198 19.1667 24.6224C17.9771 22.7897 17.2368 20.7031 17.0057 18.5316C16.9881 18.3373 17.0113 18.1415 17.0736 17.9566C17.136 17.7718 17.2363 17.6019 17.3681 17.4578C17.4998 17.3138 17.6602 17.1987 17.839 17.1199C18.0178 17.041 18.2111 17.0003 18.4065 17.0001H20.5183C20.8599 16.9967 21.1911 17.1174 21.4501 17.3398C21.7091 17.5621 21.8783 17.8708 21.9261 18.2084C22.0152 18.8829 22.1805 19.5451 22.4188 20.1825C22.5135 20.4339 22.534 20.7072 22.4779 20.9699C22.4218 21.2327 22.2913 21.4738 22.1021 21.6648L21.2081 22.557C22.2102 24.3158 23.6693 25.7721 25.4316 26.7721L26.3256 25.8799C26.517 25.6911 26.7586 25.5609 27.0218 25.5049C27.2851 25.4488 27.5589 25.4693 27.8108 25.5638C28.4495 25.8016 29.113 25.9666 29.7888 26.0556C30.1308 26.1037 30.4431 26.2756 30.6663 26.5385C30.8895 26.8015 31.0081 27.1372 30.9996 27.4817Z" stroke="#EF7D00" stroke-width="1.5" stroke-linecap="round" stroke-linejoin="round"/>
</svg>
